<mxfile host="app.diagrams.net" modified="2022-03-19T21:15:20.790Z" agent="5.0 (Macintosh; Intel Mac OS X 10_15_7) AppleWebKit/537.36 (KHTML, like Gecko) Chrome/99.0.4844.74 Safari/537.36" etag="sX60mZWPGz8L2ZRdWSAa" version="17.1.3" type="github">
  <diagram id="s3T_olm6coUrWhZSsFWz" name="Page-1">
    <mxGraphModel dx="1017" dy="744" grid="1" gridSize="10" guides="1" tooltips="1" connect="1" arrows="1" fold="1" page="1" pageScale="1" pageWidth="827" pageHeight="1169" math="0" shadow="0">
      <root>
        <mxCell id="0" />
        <mxCell id="1" parent="0" />
        <mxCell id="sj1FuvsAlHmYrhTBf-q_-3" value="" style="rounded=0;whiteSpace=wrap;html=1;strokeColor=#330000;" parent="1" vertex="1">
          <mxGeometry x="80" y="40" width="680" height="480" as="geometry" />
        </mxCell>
        <mxCell id="sj1FuvsAlHmYrhTBf-q_-4" value="" style="rounded=0;whiteSpace=wrap;html=1;fillColor=#a20025;strokeColor=#6F0000;fontColor=#ffffff;" parent="1" vertex="1">
          <mxGeometry x="80" y="40" width="680" height="20" as="geometry" />
        </mxCell>
        <mxCell id="sj1FuvsAlHmYrhTBf-q_-5" value="" style="rounded=0;whiteSpace=wrap;html=1;" parent="1" vertex="1">
          <mxGeometry x="80" y="100" width="680" height="20" as="geometry" />
        </mxCell>
        <mxCell id="sj1FuvsAlHmYrhTBf-q_-6" value="&lt;b&gt;CADASTROS&lt;/b&gt;" style="text;html=1;strokeColor=none;fillColor=none;align=center;verticalAlign=middle;whiteSpace=wrap;rounded=0;glass=0;" parent="1" vertex="1">
          <mxGeometry x="110" y="100" width="60" height="20" as="geometry" />
        </mxCell>
        <mxCell id="sj1FuvsAlHmYrhTBf-q_-7" value="&lt;b&gt;AGENDAMENTOS&lt;/b&gt;" style="text;html=1;strokeColor=none;fillColor=none;align=center;verticalAlign=middle;whiteSpace=wrap;rounded=0;" parent="1" vertex="1">
          <mxGeometry x="215" y="100" width="60" height="20" as="geometry" />
        </mxCell>
        <mxCell id="sj1FuvsAlHmYrhTBf-q_-9" value="&lt;b&gt;RELATÓRIOS&lt;/b&gt;" style="text;html=1;strokeColor=none;fillColor=none;align=center;verticalAlign=middle;whiteSpace=wrap;rounded=0;glass=0;" parent="1" vertex="1">
          <mxGeometry x="323" y="100" width="60" height="20" as="geometry" />
        </mxCell>
        <mxCell id="sj1FuvsAlHmYrhTBf-q_-10" value="&lt;b&gt;SISTEMA&lt;/b&gt;" style="text;html=1;strokeColor=none;fillColor=none;align=center;verticalAlign=middle;whiteSpace=wrap;rounded=0;glass=0;" parent="1" vertex="1">
          <mxGeometry x="405" y="100" width="60" height="20" as="geometry" />
        </mxCell>
        <mxCell id="sj1FuvsAlHmYrhTBf-q_-11" value="" style="rounded=0;whiteSpace=wrap;html=1;glass=0;strokeColor=default;fillColor=none;" parent="1" vertex="1">
          <mxGeometry x="190" y="200" width="540" height="260" as="geometry" />
        </mxCell>
        <mxCell id="sj1FuvsAlHmYrhTBf-q_-16" value="" style="verticalLabelPosition=bottom;verticalAlign=top;html=1;shape=mxgraph.basic.x;glass=0;strokeColor=none;" parent="1" vertex="1">
          <mxGeometry x="735" y="45" width="20" height="10" as="geometry" />
        </mxCell>
        <mxCell id="sj1FuvsAlHmYrhTBf-q_-18" value="" style="whiteSpace=wrap;html=1;shape=mxgraph.basic.document;glass=0;fillColor=none;strokeColor=#FFFFFF;" parent="1" vertex="1">
          <mxGeometry x="708" y="45" width="20" height="10" as="geometry" />
        </mxCell>
        <mxCell id="sj1FuvsAlHmYrhTBf-q_-20" value="" style="line;strokeWidth=1;rotatable=0;dashed=0;labelPosition=right;align=left;verticalAlign=middle;spacingTop=0;spacingLeft=6;points=[];portConstraint=eastwest;glass=0;fillColor=none;strokeColor=#FFFFFF;" parent="1" vertex="1">
          <mxGeometry x="680" y="49" width="20" height="10" as="geometry" />
        </mxCell>
        <mxCell id="sj1FuvsAlHmYrhTBf-q_-21" value="" style="rounded=0;whiteSpace=wrap;html=1;fillColor=#a20025;strokeColor=#6F0000;fontColor=#ffffff;" parent="1" vertex="1">
          <mxGeometry x="190" y="200" width="540" height="20" as="geometry" />
        </mxCell>
        <mxCell id="sj1FuvsAlHmYrhTBf-q_-22" value="" style="line;strokeWidth=1;rotatable=0;dashed=0;labelPosition=right;align=left;verticalAlign=middle;spacingTop=0;spacingLeft=6;points=[];portConstraint=eastwest;glass=0;fillColor=none;strokeColor=#FFFFFF;" parent="1" vertex="1">
          <mxGeometry x="780" y="49" width="20" height="10" as="geometry" />
        </mxCell>
        <mxCell id="sj1FuvsAlHmYrhTBf-q_-27" value="" style="verticalLabelPosition=bottom;verticalAlign=top;html=1;shape=mxgraph.basic.x;glass=0;strokeColor=none;" parent="1" vertex="1">
          <mxGeometry x="700" y="205" width="20" height="10" as="geometry" />
        </mxCell>
        <mxCell id="sj1FuvsAlHmYrhTBf-q_-28" value="" style="whiteSpace=wrap;html=1;shape=mxgraph.basic.document;glass=0;fillColor=none;strokeColor=#FFFFFF;" parent="1" vertex="1">
          <mxGeometry x="670" y="205" width="20" height="10" as="geometry" />
        </mxCell>
        <mxCell id="sj1FuvsAlHmYrhTBf-q_-30" value="" style="line;strokeWidth=1;rotatable=0;dashed=0;labelPosition=right;align=left;verticalAlign=middle;spacingTop=0;spacingLeft=6;points=[];portConstraint=eastwest;glass=0;fillColor=none;strokeColor=#FFFFFF;" parent="1" vertex="1">
          <mxGeometry x="640" y="208" width="20" height="10" as="geometry" />
        </mxCell>
        <mxCell id="sj1FuvsAlHmYrhTBf-q_-32" value="&lt;b&gt;&lt;font color=&quot;#fcfeff&quot;&gt;MM_BARBEARIA&lt;/font&gt;&lt;/b&gt;" style="text;html=1;strokeColor=none;fillColor=none;align=center;verticalAlign=middle;whiteSpace=wrap;rounded=0;glass=0;" parent="1" vertex="1">
          <mxGeometry x="106" y="46" width="60" height="10" as="geometry" />
        </mxCell>
        <mxCell id="sj1FuvsAlHmYrhTBf-q_-33" value="&lt;b&gt;&lt;font color=&quot;#fcfeff&quot;&gt;AGENDAMENTOS&lt;/font&gt;&lt;/b&gt;" style="text;html=1;strokeColor=none;fillColor=none;align=center;verticalAlign=middle;whiteSpace=wrap;rounded=0;glass=0;" parent="1" vertex="1">
          <mxGeometry x="221" y="206" width="60" height="10" as="geometry" />
        </mxCell>
        <mxCell id="sj1FuvsAlHmYrhTBf-q_-34" value="&lt;font color=&quot;#330000&quot;&gt;CLIENTE&lt;/font&gt;" style="text;html=1;strokeColor=none;fillColor=none;align=center;verticalAlign=middle;whiteSpace=wrap;rounded=0;glass=0;fontColor=#FCFEFF;" parent="1" vertex="1">
          <mxGeometry x="200" y="240" width="60" height="30" as="geometry" />
        </mxCell>
        <mxCell id="sj1FuvsAlHmYrhTBf-q_-35" value="&lt;font color=&quot;#330000&quot;&gt;CPF&lt;/font&gt;" style="text;html=1;strokeColor=none;fillColor=none;align=center;verticalAlign=middle;whiteSpace=wrap;rounded=0;glass=0;fontColor=#FCFEFF;" parent="1" vertex="1">
          <mxGeometry x="200" y="270" width="60" height="30" as="geometry" />
        </mxCell>
        <mxCell id="sj1FuvsAlHmYrhTBf-q_-36" value="&lt;font color=&quot;#330000&quot;&gt;DATA&lt;/font&gt;" style="text;html=1;strokeColor=none;fillColor=none;align=center;verticalAlign=middle;whiteSpace=wrap;rounded=0;glass=0;fontColor=#FCFEFF;" parent="1" vertex="1">
          <mxGeometry x="200" y="300" width="60" height="30" as="geometry" />
        </mxCell>
        <mxCell id="sj1FuvsAlHmYrhTBf-q_-37" value="&lt;font color=&quot;#330000&quot;&gt;HORÁRIO&lt;/font&gt;" style="text;html=1;strokeColor=none;fillColor=none;align=center;verticalAlign=middle;whiteSpace=wrap;rounded=0;glass=0;fontColor=#FCFEFF;" parent="1" vertex="1">
          <mxGeometry x="200" y="330" width="60" height="30" as="geometry" />
        </mxCell>
        <mxCell id="sj1FuvsAlHmYrhTBf-q_-38" value="&lt;font color=&quot;#330000&quot;&gt;PAGAMENTO&lt;/font&gt;" style="text;html=1;strokeColor=none;fillColor=none;align=center;verticalAlign=middle;whiteSpace=wrap;rounded=0;glass=0;fontColor=#FCFEFF;" parent="1" vertex="1">
          <mxGeometry x="210" y="360" width="60" height="30" as="geometry" />
        </mxCell>
        <mxCell id="sj1FuvsAlHmYrhTBf-q_-39" value="" style="rounded=0;whiteSpace=wrap;html=1;glass=0;fontColor=#330000;strokeColor=#330000;fillColor=none;" parent="1" vertex="1">
          <mxGeometry x="290" y="240" width="420" height="20" as="geometry" />
        </mxCell>
        <mxCell id="sj1FuvsAlHmYrhTBf-q_-42" value="" style="rounded=0;whiteSpace=wrap;html=1;glass=0;fontColor=#330000;strokeColor=#330000;fillColor=none;" parent="1" vertex="1">
          <mxGeometry x="290" y="270" width="160" height="20" as="geometry" />
        </mxCell>
        <mxCell id="sj1FuvsAlHmYrhTBf-q_-43" value="" style="rounded=0;whiteSpace=wrap;html=1;glass=0;fontColor=#330000;strokeColor=#330000;fillColor=none;" parent="1" vertex="1">
          <mxGeometry x="290" y="300" width="160" height="20" as="geometry" />
        </mxCell>
        <mxCell id="sj1FuvsAlHmYrhTBf-q_-44" value="" style="rounded=0;whiteSpace=wrap;html=1;glass=0;fontColor=#330000;strokeColor=#330000;fillColor=none;" parent="1" vertex="1">
          <mxGeometry x="290" y="330" width="160" height="20" as="geometry" />
        </mxCell>
        <mxCell id="sj1FuvsAlHmYrhTBf-q_-45" value="" style="rounded=0;whiteSpace=wrap;html=1;glass=0;fontColor=#330000;strokeColor=#330000;fillColor=none;" parent="1" vertex="1">
          <mxGeometry x="290" y="360" width="160" height="20" as="geometry" />
        </mxCell>
        <mxCell id="09B_ZqSjztqHLQO_VRk8-1" value="" style="rounded=1;whiteSpace=wrap;html=1;glass=0;fontColor=#ffffff;strokeColor=#6F0000;fillColor=#a20025;" parent="1" vertex="1">
          <mxGeometry x="200" y="430" width="70" height="20" as="geometry" />
        </mxCell>
        <mxCell id="09B_ZqSjztqHLQO_VRk8-2" value="" style="rounded=1;whiteSpace=wrap;html=1;glass=0;fontColor=#ffffff;strokeColor=#6F0000;fillColor=#a20025;" parent="1" vertex="1">
          <mxGeometry x="651" y="430" width="70" height="20" as="geometry" />
        </mxCell>
        <mxCell id="09B_ZqSjztqHLQO_VRk8-3" value="" style="verticalLabelPosition=bottom;verticalAlign=top;html=1;shape=mxgraph.basic.x;glass=0;strokeColor=none;" parent="1" vertex="1">
          <mxGeometry x="676" y="435" width="20" height="10" as="geometry" />
        </mxCell>
        <mxCell id="09B_ZqSjztqHLQO_VRk8-4" value="" style="verticalLabelPosition=bottom;verticalAlign=top;html=1;shape=mxgraph.basic.tick;glass=0;strokeColor=#FCFEFF;" parent="1" vertex="1">
          <mxGeometry x="227" y="435" width="15" height="10" as="geometry" />
        </mxCell>
        <mxCell id="13wPVvm4dfQ68heIb8LZ-1" value="&lt;b&gt;AJUDA&lt;/b&gt;" style="text;html=1;strokeColor=none;fillColor=none;align=center;verticalAlign=middle;whiteSpace=wrap;rounded=0;glass=0;" vertex="1" parent="1">
          <mxGeometry x="466" y="100" width="60" height="20" as="geometry" />
        </mxCell>
      </root>
    </mxGraphModel>
  </diagram>
</mxfile>
